<svg width="24" height="24" viewBox="0 0 24 24" fill="none" xmlns="http://www.w3.org/2000/svg">
<path fill-rule="evenodd" clip-rule="evenodd" d="M17.4725 14.382C17.1745 14.233 15.7135 13.515 15.4415 13.415C15.1695 13.316 14.9715 13.267 14.7725 13.565C14.5745 13.861 14.0055 14.531 13.8325 14.729C13.6585 14.928 13.4855 14.952 13.1885 14.804C12.8915 14.654 11.9335 14.341 10.7985 13.329C9.91547 12.541 9.31847 11.568 9.14547 11.27C8.97247 10.973 9.12647 10.812 9.27547 10.664C9.40947 10.531 9.57247 10.317 9.72147 10.144C9.87047 9.97003 9.91947 9.84603 10.0185 9.64703C10.1185 9.44903 10.0685 9.27603 9.99347 9.12703C9.91947 8.97803 9.32547 7.51503 9.07747 6.92003C8.83647 6.34103 8.59147 6.42003 8.40947 6.41003C8.23547 6.40203 8.03747 6.40003 7.83947 6.40003C7.64147 6.40003 7.31947 6.47403 7.04747 6.77203C6.77447 7.06903 6.00747 7.78803 6.00747 9.25103C6.00747 10.713 7.07147 12.126 7.22047 12.325C7.36947 12.523 9.31547 15.525 12.2965 16.812C13.0065 17.118 13.5595 17.301 13.9905 17.437C14.7025 17.664 15.3505 17.632 15.8625 17.555C16.4325 17.47 17.6205 16.836 17.8685 16.142C18.1155 15.448 18.1155 14.853 18.0415 14.729C17.9675 14.605 17.7695 14.531 17.4715 14.382H17.4725ZM12.0505 21.785H12.0465C10.2759 21.7853 8.53784 21.3094 7.01447 20.407L6.65447 20.193L2.91247 21.175L3.91147 17.527L3.67647 17.153C2.68661 15.5774 2.16277 13.7538 2.16547 11.893C2.16747 6.44303 6.60147 2.00903 12.0545 2.00903C14.6945 2.00903 17.1765 3.03903 19.0425 4.90703C19.9628 5.82361 20.6923 6.91359 21.1887 8.11392C21.6852 9.31425 21.9386 10.6011 21.9345 11.9C21.9325 17.35 17.4985 21.785 12.0505 21.785V21.785ZM20.4625 3.48803C19.3607 2.37895 18.0497 1.49956 16.6056 0.900826C15.1614 0.30209 13.6128 -0.00409151 12.0495 2.57188e-05C5.49547 2.57188e-05 0.159472 5.33503 0.157472 11.892C0.154435 13.9788 0.701847 16.0294 1.74447 17.837L0.0574722 24L6.36147 22.346C8.10535 23.2961 10.0596 23.794 12.0455 23.794H12.0505C18.6045 23.794 23.9405 18.459 23.9425 11.901C23.9473 10.3383 23.6422 8.79013 23.0449 7.34606C22.4476 5.90199 21.5698 4.5907 20.4625 3.48803" fill="white"/>
</svg>
