<svg width="26" height="26" viewBox="0 0 26 26" fill="none" xmlns="http://www.w3.org/2000/svg">
<path d="M19 1H7C3.68629 1 1 3.68629 1 7V19C1 22.3137 3.68629 25 7 25H19C22.3137 25 25 22.3137 25 19V7C25 3.68629 22.3137 1 19 1Z" stroke="white" stroke-width="2" stroke-linecap="round" stroke-linejoin="round"/>
<path d="M17.7998 12.2441C17.9479 13.2428 17.7773 14.2627 17.3123 15.1589C16.8473 16.055 16.1116 16.7818 15.2097 17.2357C14.3079 17.6896 13.2859 17.8476 12.2891 17.6872C11.2923 17.5268 10.3715 17.0562 9.6576 16.3422C8.9437 15.6283 8.47307 14.7075 8.31268 13.7107C8.15228 12.7139 8.31027 11.6919 8.76419 10.7901C9.2181 9.88828 9.94482 9.15255 10.841 8.68755C11.7371 8.22255 12.7571 8.05196 13.7558 8.20006C14.7745 8.35112 15.7176 8.82581 16.4458 9.55402C17.174 10.2822 17.6487 11.2253 17.7998 12.2441Z" stroke="white" stroke-width="2" stroke-linecap="round" stroke-linejoin="round"/>
<path d="M19.5999 6.39996H19.6119" stroke="white" stroke-width="2" stroke-linecap="round" stroke-linejoin="round"/>
</svg>
