<svg width="43" height="50" viewBox="0 0 43 50" fill="none" xmlns="http://www.w3.org/2000/svg">
<path d="M41.1364 20.6364C41.1364 35.9091 21.5 49 21.5 49C21.5 49 1.86363 35.9091 1.86363 20.6364C1.86363 15.4285 3.93246 10.4339 7.61499 6.75136C11.2975 3.06883 16.2921 1 21.5 1C26.7079 1 31.7025 3.06883 35.385 6.75136C39.0675 10.4339 41.1364 15.4285 41.1364 20.6364Z" stroke="white" stroke-width="2" stroke-linecap="round" stroke-linejoin="round"/>
<path d="M21.5 27.1818C25.1149 27.1818 28.0454 24.2513 28.0454 20.6364C28.0454 17.0214 25.1149 14.0909 21.5 14.0909C17.885 14.0909 14.9545 17.0214 14.9545 20.6364C14.9545 24.2513 17.885 27.1818 21.5 27.1818Z" stroke="white" stroke-width="2" stroke-linecap="round" stroke-linejoin="round"/>
</svg>
