<svg width="27" height="26" viewBox="0 0 27 26" fill="none" xmlns="http://www.w3.org/2000/svg">
<path d="M19.5 1H7.5C4.18629 1 1.5 3.68629 1.5 7V19C1.5 22.3137 4.18629 25 7.5 25H19.5C22.8137 25 25.5 22.3137 25.5 19V7C25.5 3.68629 22.8137 1 19.5 1Z" stroke="white" stroke-width="2" stroke-linecap="round" stroke-linejoin="round"/>
<path d="M18.2998 12.2441C18.4479 13.2428 18.2773 14.2628 17.8123 15.1589C17.3473 16.0551 16.6116 16.7818 15.7097 17.2357C14.8079 17.6896 13.7859 17.8476 12.7891 17.6872C11.7923 17.5268 10.8715 17.0562 10.1576 16.3423C9.4437 15.6284 8.97307 14.7076 8.81268 13.7108C8.65228 12.714 8.81027 11.692 9.26419 10.7902C9.7181 9.88834 10.4448 9.15261 11.341 8.68761C12.2371 8.22261 13.2571 8.05202 14.2558 8.20012C15.2745 8.35118 16.2176 8.82587 16.9458 9.55409C17.674 10.2823 18.1487 11.2254 18.2998 12.2441Z" stroke="white" stroke-width="2" stroke-linecap="round" stroke-linejoin="round"/>
<path d="M20.0999 6.3999H20.1119" stroke="white" stroke-width="2" stroke-linecap="round" stroke-linejoin="round"/>
</svg>
