<svg width="24" height="24" viewBox="0 0 24 24" fill="none" xmlns="http://www.w3.org/2000/svg">
<path fill-rule="evenodd" clip-rule="evenodd" d="M17.4725 14.382C17.1745 14.233 15.7135 13.515 15.4415 13.415C15.1695 13.316 14.9715 13.267 14.7725 13.565C14.5745 13.861 14.0055 14.531 13.8325 14.729C13.6585 14.928 13.4855 14.952 13.1885 14.804C12.8915 14.654 11.9335 14.341 10.7985 13.329C9.91546 12.541 9.31847 11.568 9.14546 11.27C8.97246 10.973 9.12646 10.812 9.27547 10.664C9.40946 10.531 9.57246 10.317 9.72146 10.144C9.87046 9.97004 9.91947 9.84604 10.0185 9.64704C10.1185 9.44904 10.0685 9.27604 9.99346 9.12704C9.91946 8.97804 9.32547 7.51504 9.07747 6.92004C8.83646 6.34104 8.59146 6.42004 8.40946 6.41004C8.23547 6.40204 8.03746 6.40004 7.83946 6.40004C7.64146 6.40004 7.31946 6.47404 7.04746 6.77204C6.77446 7.06904 6.00746 7.78804 6.00746 9.25104C6.00746 10.713 7.07146 12.126 7.22046 12.325C7.36946 12.523 9.31546 15.525 12.2965 16.812C13.0065 17.118 13.5595 17.301 13.9905 17.437C14.7025 17.664 15.3505 17.632 15.8625 17.555C16.4325 17.47 17.6205 16.836 17.8685 16.142C18.1155 15.448 18.1155 14.853 18.0415 14.729C17.9675 14.605 17.7695 14.531 17.4715 14.382H17.4725ZM12.0505 21.785H12.0465C10.2759 21.7854 8.53784 21.3094 7.01446 20.407L6.65446 20.193L2.91246 21.175L3.91146 17.527L3.67646 17.153C2.6866 15.5774 2.16276 13.7538 2.16546 11.893C2.16746 6.44304 6.60146 2.00904 12.0545 2.00904C14.6945 2.00904 17.1765 3.03904 19.0425 4.90704C19.9628 5.82362 20.6923 6.91361 21.1887 8.11394C21.6851 9.31427 21.9386 10.6011 21.9345 11.9C21.9325 17.35 17.4985 21.785 12.0505 21.785ZM20.4625 3.48804C19.3607 2.37896 18.0497 1.49958 16.6056 0.900841C15.1614 0.302105 13.6128 -0.00407625 12.0495 4.09775e-05C5.49546 4.09775e-05 0.159465 5.33504 0.157465 11.892C0.154428 13.9788 0.701839 16.0294 1.74446 17.837L0.0574646 24L6.36146 22.346C8.10534 23.2962 10.0596 23.794 12.0455 23.794H12.0505C18.6045 23.794 23.9405 18.459 23.9425 11.901C23.9473 10.3383 23.6422 8.79014 23.0449 7.34607C22.4476 5.90201 21.5698 4.59071 20.4625 3.48804Z" fill="white"/>
</svg>
